<svg width="78" height="78" viewBox="0 0 78 78" fill="none" xmlns="http://www.w3.org/2000/svg">
<g clip-path="url(#clip0_2024_556)">
<rect x="63.5" y="0.5" width="14" height="14" stroke="white" stroke-opacity="0.1"/>
<rect x="0.5" y="0.5" width="14" height="14" stroke="white" stroke-opacity="0.1"/>
<rect x="63.5" y="63.5" width="14" height="14" stroke="white" stroke-opacity="0.1"/>
<rect x="0.5" y="63.5" width="14" height="14" stroke="white" stroke-opacity="0.1"/>
<g filter="url(#filter0_iiii_2024_556)">
<path d="M7 7H71V71H7V7Z" fill="#F4F7F5" fill-opacity="0.01"/>
<path d="M70.5 7.5V70.5H7.5V7.5H70.5Z" stroke="white" stroke-opacity="0.1"/>
<mask id="mask0_2024_556" style="mask-type:alpha" maskUnits="userSpaceOnUse" x="19" y="19" width="40" height="40">
<path opacity="0.4" fill-rule="evenodd" clip-rule="evenodd" d="M23.1666 39.0001C23.1666 31.5362 23.1666 27.8042 25.4854 25.4855C27.8041 23.1667 31.5361 23.1667 39 23.1667C46.4638 23.1667 50.1958 23.1667 52.5146 25.4855C54.8333 27.8042 54.8333 31.5362 54.8333 39.0001C54.8333 46.4639 54.8333 50.1959 52.5146 52.5147C50.1958 54.8334 46.4638 54.8334 39 54.8334C31.5361 54.8334 27.8041 54.8334 25.4854 52.5147C23.1666 50.1959 23.1666 46.4639 23.1666 39.0001ZM33.1666 35.6667C31.7859 35.6667 30.6666 34.5475 30.6666 33.1667C30.6666 31.786 31.7859 30.6667 33.1666 30.6667C34.5473 30.6667 35.6666 31.786 35.6666 33.1667C35.6666 34.5475 34.5473 35.6667 33.1666 35.6667ZM47.3333 44.8334C47.3333 46.2141 46.214 47.3334 44.8333 47.3334C43.4526 47.3334 42.3333 46.2141 42.3333 44.8334C42.3333 43.4527 43.4526 42.3334 44.8333 42.3334C46.214 42.3334 47.3333 43.4527 47.3333 44.8334Z" fill="url(#paint0_linear_2024_556)"/>
<path d="M23.1666 39.0001C23.1666 31.5362 23.1666 27.8042 25.4854 25.4855C27.8041 23.1667 31.5361 23.1667 39 23.1667C46.4638 23.1667 50.1958 23.1667 52.5146 25.4855C54.8333 27.8042 54.8333 31.5362 54.8333 39.0001C54.8333 46.4639 54.8333 50.1959 52.5146 52.5147C50.1958 54.8334 46.4638 54.8334 39 54.8334C31.5361 54.8334 27.8041 54.8334 25.4854 52.5147C23.1666 50.1959 23.1666 46.4639 23.1666 39.0001Z" stroke="#F4F5F7" stroke-width="2.5" stroke-linejoin="round"/>
<path d="M33.1666 35.6667C31.7859 35.6667 30.6666 34.5475 30.6666 33.1667C30.6666 31.786 31.7859 30.6667 33.1666 30.6667C34.5473 30.6667 35.6666 31.786 35.6666 33.1667C35.6666 34.5475 34.5473 35.6667 33.1666 35.6667Z" stroke="#F4F5F7" stroke-width="2.5"/>
<path d="M44.8334 47.3333C46.214 47.3333 47.3334 46.2139 47.3334 44.8333C47.3334 43.4526 46.214 42.3333 44.8334 42.3333C43.4527 42.3333 42.3334 43.4526 42.3334 44.8333C42.3334 46.2139 43.4527 47.3333 44.8334 47.3333Z" stroke="#F4F5F7" stroke-width="2.5"/>
<path d="M35.6666 33.1667H47.3333" stroke="#F4F5F7" stroke-width="2.5" stroke-linecap="round"/>
<path d="M42.3333 44.8333H30.6666" stroke="#F4F5F7" stroke-width="2.5" stroke-linecap="round"/>
</mask>
<g mask="url(#mask0_2024_556)">
<rect width="40" height="40" transform="translate(19 19)" fill="url(#paint1_linear_2024_556)"/>
</g>
</g>
<g filter="url(#filter1_dd_2024_556)">
<rect width="3" height="3" transform="translate(69 69)" fill="#F4F7F5"/>
</g>
<g filter="url(#filter2_dd_2024_556)">
<rect width="3" height="3" transform="translate(69 6)" fill="#F4F7F5"/>
</g>
<g filter="url(#filter3_dd_2024_556)">
<rect width="3" height="3" transform="translate(6 6)" fill="#F4F7F5"/>
</g>
<g filter="url(#filter4_dd_2024_556)">
<rect width="3" height="3" transform="translate(6 69)" fill="#F4F7F5"/>
</g>
</g>
<defs>
<filter id="filter0_iiii_2024_556" x="-1" y="-1" width="80" height="80" filterUnits="userSpaceOnUse" color-interpolation-filters="sRGB">
<feFlood flood-opacity="0" result="BackgroundImageFix"/>
<feBlend mode="normal" in="SourceGraphic" in2="BackgroundImageFix" result="shape"/>
<feColorMatrix in="SourceAlpha" type="matrix" values="0 0 0 0 0 0 0 0 0 0 0 0 0 0 0 0 0 0 127 0" result="hardAlpha"/>
<feOffset dy="1"/>
<feGaussianBlur stdDeviation="0.5"/>
<feComposite in2="hardAlpha" operator="arithmetic" k2="-1" k3="1"/>
<feColorMatrix type="matrix" values="0 0 0 0 1 0 0 0 0 1 0 0 0 0 1 0 0 0 0.18 0"/>
<feBlend mode="normal" in2="shape" result="effect1_innerShadow_2024_556"/>
<feColorMatrix in="SourceAlpha" type="matrix" values="0 0 0 0 0 0 0 0 0 0 0 0 0 0 0 0 0 0 127 0" result="hardAlpha"/>
<feOffset/>
<feGaussianBlur stdDeviation="2"/>
<feComposite in2="hardAlpha" operator="arithmetic" k2="-1" k3="1"/>
<feColorMatrix type="matrix" values="0 0 0 0 1 0 0 0 0 1 0 0 0 0 1 0 0 0 0.06 0"/>
<feBlend mode="normal" in2="effect1_innerShadow_2024_556" result="effect2_innerShadow_2024_556"/>
<feColorMatrix in="SourceAlpha" type="matrix" values="0 0 0 0 0 0 0 0 0 0 0 0 0 0 0 0 0 0 127 0" result="hardAlpha"/>
<feOffset/>
<feGaussianBlur stdDeviation="4"/>
<feComposite in2="hardAlpha" operator="arithmetic" k2="-1" k3="1"/>
<feColorMatrix type="matrix" values="0 0 0 0 1 0 0 0 0 1 0 0 0 0 1 0 0 0 0.08 0"/>
<feBlend mode="normal" in2="effect2_innerShadow_2024_556" result="effect3_innerShadow_2024_556"/>
<feColorMatrix in="SourceAlpha" type="matrix" values="0 0 0 0 0 0 0 0 0 0 0 0 0 0 0 0 0 0 127 0" result="hardAlpha"/>
<feOffset/>
<feGaussianBlur stdDeviation="8"/>
<feComposite in2="hardAlpha" operator="arithmetic" k2="-1" k3="1"/>
<feColorMatrix type="matrix" values="0 0 0 0 1 0 0 0 0 1 0 0 0 0 1 0 0 0 0.12 0"/>
<feBlend mode="normal" in2="effect3_innerShadow_2024_556" result="effect4_innerShadow_2024_556"/>
</filter>
<filter id="filter1_dd_2024_556" x="63" y="63" width="19" height="19" filterUnits="userSpaceOnUse" color-interpolation-filters="sRGB">
<feFlood flood-opacity="0" result="BackgroundImageFix"/>
<feColorMatrix in="SourceAlpha" type="matrix" values="0 0 0 0 0 0 0 0 0 0 0 0 0 0 0 0 0 0 127 0" result="hardAlpha"/>
<feOffset dy="1"/>
<feGaussianBlur stdDeviation="1.5"/>
<feComposite in2="hardAlpha" operator="out"/>
<feColorMatrix type="matrix" values="0 0 0 0 0.956863 0 0 0 0 0.968627 0 0 0 0 0.960784 0 0 0 0.08 0"/>
<feBlend mode="normal" in2="BackgroundImageFix" result="effect1_dropShadow_2024_556"/>
<feColorMatrix in="SourceAlpha" type="matrix" values="0 0 0 0 0 0 0 0 0 0 0 0 0 0 0 0 0 0 127 0" result="hardAlpha"/>
<feOffset dx="2" dy="2"/>
<feGaussianBlur stdDeviation="4"/>
<feComposite in2="hardAlpha" operator="out"/>
<feColorMatrix type="matrix" values="0 0 0 0 0.956863 0 0 0 0 0.968627 0 0 0 0 0.960784 0 0 0 0.12 0"/>
<feBlend mode="normal" in2="effect1_dropShadow_2024_556" result="effect2_dropShadow_2024_556"/>
<feBlend mode="normal" in="SourceGraphic" in2="effect2_dropShadow_2024_556" result="shape"/>
</filter>
<filter id="filter2_dd_2024_556" x="63" y="0" width="19" height="19" filterUnits="userSpaceOnUse" color-interpolation-filters="sRGB">
<feFlood flood-opacity="0" result="BackgroundImageFix"/>
<feColorMatrix in="SourceAlpha" type="matrix" values="0 0 0 0 0 0 0 0 0 0 0 0 0 0 0 0 0 0 127 0" result="hardAlpha"/>
<feOffset dy="1"/>
<feGaussianBlur stdDeviation="1.5"/>
<feComposite in2="hardAlpha" operator="out"/>
<feColorMatrix type="matrix" values="0 0 0 0 0.956863 0 0 0 0 0.968627 0 0 0 0 0.960784 0 0 0 0.08 0"/>
<feBlend mode="normal" in2="BackgroundImageFix" result="effect1_dropShadow_2024_556"/>
<feColorMatrix in="SourceAlpha" type="matrix" values="0 0 0 0 0 0 0 0 0 0 0 0 0 0 0 0 0 0 127 0" result="hardAlpha"/>
<feOffset dx="2" dy="2"/>
<feGaussianBlur stdDeviation="4"/>
<feComposite in2="hardAlpha" operator="out"/>
<feColorMatrix type="matrix" values="0 0 0 0 0.956863 0 0 0 0 0.968627 0 0 0 0 0.960784 0 0 0 0.12 0"/>
<feBlend mode="normal" in2="effect1_dropShadow_2024_556" result="effect2_dropShadow_2024_556"/>
<feBlend mode="normal" in="SourceGraphic" in2="effect2_dropShadow_2024_556" result="shape"/>
</filter>
<filter id="filter3_dd_2024_556" x="0" y="0" width="19" height="19" filterUnits="userSpaceOnUse" color-interpolation-filters="sRGB">
<feFlood flood-opacity="0" result="BackgroundImageFix"/>
<feColorMatrix in="SourceAlpha" type="matrix" values="0 0 0 0 0 0 0 0 0 0 0 0 0 0 0 0 0 0 127 0" result="hardAlpha"/>
<feOffset dy="1"/>
<feGaussianBlur stdDeviation="1.5"/>
<feComposite in2="hardAlpha" operator="out"/>
<feColorMatrix type="matrix" values="0 0 0 0 0.956863 0 0 0 0 0.968627 0 0 0 0 0.960784 0 0 0 0.08 0"/>
<feBlend mode="normal" in2="BackgroundImageFix" result="effect1_dropShadow_2024_556"/>
<feColorMatrix in="SourceAlpha" type="matrix" values="0 0 0 0 0 0 0 0 0 0 0 0 0 0 0 0 0 0 127 0" result="hardAlpha"/>
<feOffset dx="2" dy="2"/>
<feGaussianBlur stdDeviation="4"/>
<feComposite in2="hardAlpha" operator="out"/>
<feColorMatrix type="matrix" values="0 0 0 0 0.956863 0 0 0 0 0.968627 0 0 0 0 0.960784 0 0 0 0.12 0"/>
<feBlend mode="normal" in2="effect1_dropShadow_2024_556" result="effect2_dropShadow_2024_556"/>
<feBlend mode="normal" in="SourceGraphic" in2="effect2_dropShadow_2024_556" result="shape"/>
</filter>
<filter id="filter4_dd_2024_556" x="0" y="63" width="19" height="19" filterUnits="userSpaceOnUse" color-interpolation-filters="sRGB">
<feFlood flood-opacity="0" result="BackgroundImageFix"/>
<feColorMatrix in="SourceAlpha" type="matrix" values="0 0 0 0 0 0 0 0 0 0 0 0 0 0 0 0 0 0 127 0" result="hardAlpha"/>
<feOffset dy="1"/>
<feGaussianBlur stdDeviation="1.5"/>
<feComposite in2="hardAlpha" operator="out"/>
<feColorMatrix type="matrix" values="0 0 0 0 0.956863 0 0 0 0 0.968627 0 0 0 0 0.960784 0 0 0 0.08 0"/>
<feBlend mode="normal" in2="BackgroundImageFix" result="effect1_dropShadow_2024_556"/>
<feColorMatrix in="SourceAlpha" type="matrix" values="0 0 0 0 0 0 0 0 0 0 0 0 0 0 0 0 0 0 127 0" result="hardAlpha"/>
<feOffset dx="2" dy="2"/>
<feGaussianBlur stdDeviation="4"/>
<feComposite in2="hardAlpha" operator="out"/>
<feColorMatrix type="matrix" values="0 0 0 0 0.956863 0 0 0 0 0.968627 0 0 0 0 0.960784 0 0 0 0.12 0"/>
<feBlend mode="normal" in2="effect1_dropShadow_2024_556" result="effect2_dropShadow_2024_556"/>
<feBlend mode="normal" in="SourceGraphic" in2="effect2_dropShadow_2024_556" result="shape"/>
</filter>
<linearGradient id="paint0_linear_2024_556" x1="39" y1="23.1667" x2="39" y2="54.8334" gradientUnits="userSpaceOnUse">
<stop stop-color="#F4F5F7"/>
<stop offset="1" stop-opacity="0"/>
</linearGradient>
<linearGradient id="paint1_linear_2024_556" x1="-0.28845" y1="18.4201" x2="40.328" y2="19.0561" gradientUnits="userSpaceOnUse">
<stop stop-color="#9F9DFB"/>
<stop offset="0.5" stop-color="#709AF5"/>
<stop offset="1" stop-color="#A5DCF3"/>
</linearGradient>
<clipPath id="clip0_2024_556">
<rect width="78" height="78" fill="white"/>
</clipPath>
</defs>
</svg>
