<svg width="78" height="78" viewBox="0 0 78 78" fill="none" xmlns="http://www.w3.org/2000/svg">
<g clip-path="url(#clip0_2024_535)">
<rect x="63.5" y="0.5" width="14" height="14" stroke="white" stroke-opacity="0.1"/>
<rect x="0.5" y="0.5" width="14" height="14" stroke="white" stroke-opacity="0.1"/>
<rect x="63.5" y="63.5" width="14" height="14" stroke="white" stroke-opacity="0.1"/>
<rect x="0.5" y="63.5" width="14" height="14" stroke="white" stroke-opacity="0.1"/>
<g filter="url(#filter0_iiii_2024_535)">
<path d="M7 7H71V71H7V7Z" fill="#F4F7F5" fill-opacity="0.01"/>
<path d="M70.5 7.5V70.5H7.5V7.5H70.5Z" stroke="white" stroke-opacity="0.1"/>
<mask id="mask0_2024_535" style="mask-type:alpha" maskUnits="userSpaceOnUse" x="19" y="19" width="40" height="40">
<path opacity="0.4" d="M54 37.6388V32.8004C54 30.0671 54 28.7004 53.3265 27.8087C52.653 26.9171 51.1302 26.4842 48.0845 25.6184C46.0037 25.0269 44.1693 24.3143 42.7038 23.6637C40.7057 22.7768 39.7067 22.3333 39 22.3333C38.2933 22.3333 37.2943 22.7768 35.2962 23.6637C33.8306 24.3143 31.9964 25.0269 29.9156 25.6184C26.8699 26.4842 25.347 26.9171 24.6735 27.8087C24 28.7004 24 30.0671 24 32.8004V37.6388C24 47.0141 32.4379 52.6391 36.6567 54.8656C37.6685 55.3996 38.1743 55.6666 39 55.6666C39.8257 55.6666 40.3315 55.3996 41.3433 54.8656C45.562 52.6391 54 47.0141 54 37.6388Z" fill="url(#paint0_linear_2024_535)"/>
<path d="M34 40.6667C34 40.6667 35.6667 40.6667 37.3333 44C37.3333 44 42.6275 35.6667 47.3333 34" stroke="#F4F7F5" stroke-width="2.5" stroke-linecap="round" stroke-linejoin="round"/>
<path d="M54 37.6388V32.8004C54 30.0671 54 28.7004 53.3265 27.8087C52.653 26.9171 51.1302 26.4842 48.0845 25.6184C46.0037 25.0269 44.1693 24.3143 42.7038 23.6637C40.7057 22.7768 39.7067 22.3333 39 22.3333C38.2933 22.3333 37.2943 22.7768 35.2962 23.6637C33.8306 24.3143 31.9964 25.0269 29.9156 25.6184C26.8699 26.4842 25.347 26.9171 24.6735 27.8087C24 28.7004 24 30.0671 24 32.8004V37.6388C24 47.0141 32.4379 52.6391 36.6567 54.8656C37.6685 55.3996 38.1743 55.6666 39 55.6666C39.8257 55.6666 40.3315 55.3996 41.3433 54.8656C45.562 52.6391 54 47.0141 54 37.6388Z" stroke="#F4F7F5" stroke-width="2.5" stroke-linecap="round"/>
</mask>
<g mask="url(#mask0_2024_535)">
<rect width="40" height="40" transform="translate(19 19)" fill="url(#paint1_linear_2024_535)"/>
</g>
</g>
<g filter="url(#filter1_dd_2024_535)">
<rect width="3" height="3" transform="translate(69 69)" fill="#F4F7F5"/>
</g>
<g filter="url(#filter2_dd_2024_535)">
<rect width="3" height="3" transform="translate(69 6)" fill="#F4F7F5"/>
</g>
<g filter="url(#filter3_dd_2024_535)">
<rect width="3" height="3" transform="translate(6 6)" fill="#F4F7F5"/>
</g>
<g filter="url(#filter4_dd_2024_535)">
<rect width="3" height="3" transform="translate(6 69)" fill="#F4F7F5"/>
</g>
</g>
<defs>
<filter id="filter0_iiii_2024_535" x="-1" y="-1" width="80" height="80" filterUnits="userSpaceOnUse" color-interpolation-filters="sRGB">
<feFlood flood-opacity="0" result="BackgroundImageFix"/>
<feBlend mode="normal" in="SourceGraphic" in2="BackgroundImageFix" result="shape"/>
<feColorMatrix in="SourceAlpha" type="matrix" values="0 0 0 0 0 0 0 0 0 0 0 0 0 0 0 0 0 0 127 0" result="hardAlpha"/>
<feOffset dy="1"/>
<feGaussianBlur stdDeviation="0.5"/>
<feComposite in2="hardAlpha" operator="arithmetic" k2="-1" k3="1"/>
<feColorMatrix type="matrix" values="0 0 0 0 1 0 0 0 0 1 0 0 0 0 1 0 0 0 0.18 0"/>
<feBlend mode="normal" in2="shape" result="effect1_innerShadow_2024_535"/>
<feColorMatrix in="SourceAlpha" type="matrix" values="0 0 0 0 0 0 0 0 0 0 0 0 0 0 0 0 0 0 127 0" result="hardAlpha"/>
<feOffset/>
<feGaussianBlur stdDeviation="2"/>
<feComposite in2="hardAlpha" operator="arithmetic" k2="-1" k3="1"/>
<feColorMatrix type="matrix" values="0 0 0 0 1 0 0 0 0 1 0 0 0 0 1 0 0 0 0.06 0"/>
<feBlend mode="normal" in2="effect1_innerShadow_2024_535" result="effect2_innerShadow_2024_535"/>
<feColorMatrix in="SourceAlpha" type="matrix" values="0 0 0 0 0 0 0 0 0 0 0 0 0 0 0 0 0 0 127 0" result="hardAlpha"/>
<feOffset/>
<feGaussianBlur stdDeviation="4"/>
<feComposite in2="hardAlpha" operator="arithmetic" k2="-1" k3="1"/>
<feColorMatrix type="matrix" values="0 0 0 0 1 0 0 0 0 1 0 0 0 0 1 0 0 0 0.08 0"/>
<feBlend mode="normal" in2="effect2_innerShadow_2024_535" result="effect3_innerShadow_2024_535"/>
<feColorMatrix in="SourceAlpha" type="matrix" values="0 0 0 0 0 0 0 0 0 0 0 0 0 0 0 0 0 0 127 0" result="hardAlpha"/>
<feOffset/>
<feGaussianBlur stdDeviation="8"/>
<feComposite in2="hardAlpha" operator="arithmetic" k2="-1" k3="1"/>
<feColorMatrix type="matrix" values="0 0 0 0 1 0 0 0 0 1 0 0 0 0 1 0 0 0 0.12 0"/>
<feBlend mode="normal" in2="effect3_innerShadow_2024_535" result="effect4_innerShadow_2024_535"/>
</filter>
<filter id="filter1_dd_2024_535" x="63" y="63" width="19" height="19" filterUnits="userSpaceOnUse" color-interpolation-filters="sRGB">
<feFlood flood-opacity="0" result="BackgroundImageFix"/>
<feColorMatrix in="SourceAlpha" type="matrix" values="0 0 0 0 0 0 0 0 0 0 0 0 0 0 0 0 0 0 127 0" result="hardAlpha"/>
<feOffset dy="1"/>
<feGaussianBlur stdDeviation="1.5"/>
<feComposite in2="hardAlpha" operator="out"/>
<feColorMatrix type="matrix" values="0 0 0 0 0.956863 0 0 0 0 0.968627 0 0 0 0 0.960784 0 0 0 0.08 0"/>
<feBlend mode="normal" in2="BackgroundImageFix" result="effect1_dropShadow_2024_535"/>
<feColorMatrix in="SourceAlpha" type="matrix" values="0 0 0 0 0 0 0 0 0 0 0 0 0 0 0 0 0 0 127 0" result="hardAlpha"/>
<feOffset dx="2" dy="2"/>
<feGaussianBlur stdDeviation="4"/>
<feComposite in2="hardAlpha" operator="out"/>
<feColorMatrix type="matrix" values="0 0 0 0 0.956863 0 0 0 0 0.968627 0 0 0 0 0.960784 0 0 0 0.12 0"/>
<feBlend mode="normal" in2="effect1_dropShadow_2024_535" result="effect2_dropShadow_2024_535"/>
<feBlend mode="normal" in="SourceGraphic" in2="effect2_dropShadow_2024_535" result="shape"/>
</filter>
<filter id="filter2_dd_2024_535" x="63" y="0" width="19" height="19" filterUnits="userSpaceOnUse" color-interpolation-filters="sRGB">
<feFlood flood-opacity="0" result="BackgroundImageFix"/>
<feColorMatrix in="SourceAlpha" type="matrix" values="0 0 0 0 0 0 0 0 0 0 0 0 0 0 0 0 0 0 127 0" result="hardAlpha"/>
<feOffset dy="1"/>
<feGaussianBlur stdDeviation="1.5"/>
<feComposite in2="hardAlpha" operator="out"/>
<feColorMatrix type="matrix" values="0 0 0 0 0.956863 0 0 0 0 0.968627 0 0 0 0 0.960784 0 0 0 0.08 0"/>
<feBlend mode="normal" in2="BackgroundImageFix" result="effect1_dropShadow_2024_535"/>
<feColorMatrix in="SourceAlpha" type="matrix" values="0 0 0 0 0 0 0 0 0 0 0 0 0 0 0 0 0 0 127 0" result="hardAlpha"/>
<feOffset dx="2" dy="2"/>
<feGaussianBlur stdDeviation="4"/>
<feComposite in2="hardAlpha" operator="out"/>
<feColorMatrix type="matrix" values="0 0 0 0 0.956863 0 0 0 0 0.968627 0 0 0 0 0.960784 0 0 0 0.12 0"/>
<feBlend mode="normal" in2="effect1_dropShadow_2024_535" result="effect2_dropShadow_2024_535"/>
<feBlend mode="normal" in="SourceGraphic" in2="effect2_dropShadow_2024_535" result="shape"/>
</filter>
<filter id="filter3_dd_2024_535" x="0" y="0" width="19" height="19" filterUnits="userSpaceOnUse" color-interpolation-filters="sRGB">
<feFlood flood-opacity="0" result="BackgroundImageFix"/>
<feColorMatrix in="SourceAlpha" type="matrix" values="0 0 0 0 0 0 0 0 0 0 0 0 0 0 0 0 0 0 127 0" result="hardAlpha"/>
<feOffset dy="1"/>
<feGaussianBlur stdDeviation="1.5"/>
<feComposite in2="hardAlpha" operator="out"/>
<feColorMatrix type="matrix" values="0 0 0 0 0.956863 0 0 0 0 0.968627 0 0 0 0 0.960784 0 0 0 0.08 0"/>
<feBlend mode="normal" in2="BackgroundImageFix" result="effect1_dropShadow_2024_535"/>
<feColorMatrix in="SourceAlpha" type="matrix" values="0 0 0 0 0 0 0 0 0 0 0 0 0 0 0 0 0 0 127 0" result="hardAlpha"/>
<feOffset dx="2" dy="2"/>
<feGaussianBlur stdDeviation="4"/>
<feComposite in2="hardAlpha" operator="out"/>
<feColorMatrix type="matrix" values="0 0 0 0 0.956863 0 0 0 0 0.968627 0 0 0 0 0.960784 0 0 0 0.12 0"/>
<feBlend mode="normal" in2="effect1_dropShadow_2024_535" result="effect2_dropShadow_2024_535"/>
<feBlend mode="normal" in="SourceGraphic" in2="effect2_dropShadow_2024_535" result="shape"/>
</filter>
<filter id="filter4_dd_2024_535" x="0" y="63" width="19" height="19" filterUnits="userSpaceOnUse" color-interpolation-filters="sRGB">
<feFlood flood-opacity="0" result="BackgroundImageFix"/>
<feColorMatrix in="SourceAlpha" type="matrix" values="0 0 0 0 0 0 0 0 0 0 0 0 0 0 0 0 0 0 127 0" result="hardAlpha"/>
<feOffset dy="1"/>
<feGaussianBlur stdDeviation="1.5"/>
<feComposite in2="hardAlpha" operator="out"/>
<feColorMatrix type="matrix" values="0 0 0 0 0.956863 0 0 0 0 0.968627 0 0 0 0 0.960784 0 0 0 0.08 0"/>
<feBlend mode="normal" in2="BackgroundImageFix" result="effect1_dropShadow_2024_535"/>
<feColorMatrix in="SourceAlpha" type="matrix" values="0 0 0 0 0 0 0 0 0 0 0 0 0 0 0 0 0 0 127 0" result="hardAlpha"/>
<feOffset dx="2" dy="2"/>
<feGaussianBlur stdDeviation="4"/>
<feComposite in2="hardAlpha" operator="out"/>
<feColorMatrix type="matrix" values="0 0 0 0 0.956863 0 0 0 0 0.968627 0 0 0 0 0.960784 0 0 0 0.12 0"/>
<feBlend mode="normal" in2="effect1_dropShadow_2024_535" result="effect2_dropShadow_2024_535"/>
<feBlend mode="normal" in="SourceGraphic" in2="effect2_dropShadow_2024_535" result="shape"/>
</filter>
<linearGradient id="paint0_linear_2024_535" x1="39" y1="22.3333" x2="39" y2="55.6666" gradientUnits="userSpaceOnUse">
<stop stop-color="#F4F7F5"/>
<stop offset="1" stop-opacity="0"/>
</linearGradient>
<linearGradient id="paint1_linear_2024_535" x1="-0.28845" y1="18.4201" x2="40.328" y2="19.0561" gradientUnits="userSpaceOnUse">
<stop stop-color="#9F9DFB"/>
<stop offset="0.5" stop-color="#709AF5"/>
<stop offset="1" stop-color="#A5DCF3"/>
</linearGradient>
<clipPath id="clip0_2024_535">
<rect width="78" height="78" fill="white"/>
</clipPath>
</defs>
</svg>
