<svg width="75" height="20" viewBox="0 0 75 20" fill="none" xmlns="http://www.w3.org/2000/svg">
<path d="M9.98873 20C8.66831 19.9993 7.37807 19.7577 6.16218 19.2363C3.66945 18.1754 1.69947 16.1686 0.684658 13.6562C-0.278603 11.1874 -0.223556 8.43715 0.837883 6.00885C1.88028 3.57536 3.85045 1.65861 6.31132 0.683776C8.83112 -0.312691 11.5626 -0.196415 14.0377 0.878497C15.0799 1.34029 16.0355 1.94214 16.8722 2.71946C18.3785 4.1193 19.4013 5.96156 19.7932 7.98047C19.9233 8.65007 19.9755 9.31255 20 9.99323C18.3325 10.0161 16.6615 9.994 14.9936 9.994C14.9451 8.82089 14.6301 7.72039 13.844 6.81947C12.9375 5.78057 11.6233 5.06653 10.2406 4.98025C8.9587 4.90492 7.69994 5.34488 6.74393 6.20234C5.73734 7.10235 5.13137 8.36687 5.06046 9.7154C5.01577 10.5487 5.16485 11.5285 5.54927 12.2802C5.74725 12.6672 6.03732 13.0488 6.32965 13.3701C7.33352 14.4732 8.52571 14.9314 9.98828 15.0002C10.0051 16.666 9.99171 18.3339 9.98873 20Z" fill="white"/>
<path d="M9.99151 9.99271L14.991 9.99368L14.9919 14.9977L9.98827 15.0002L9.98976 11.6025C9.9897 11.0665 9.98005 10.5286 9.99151 9.99271Z" fill="white"/>
<path d="M14.997 14.9989L19.9966 15L19.998 19.9998L14.9878 19.9999C15.0217 19.4527 14.9943 18.8905 14.9942 18.3413L14.997 14.9989Z" fill="white"/>
<path d="M45.34 15.72L44.25 17.13L38.44 12.69L39.5 11.27L45.34 15.72ZM32.83 10.65C32.83 9.27667 33.0867 8.07667 33.6 7.05C34.1133 6.02333 34.8333 5.22667 35.76 4.66C36.6867 4.08667 37.77 3.8 39.01 3.8C40.2233 3.8 41.2833 4.07667 42.19 4.63C43.0967 5.17667 43.8033 5.95 44.31 6.95C44.8233 7.94333 45.08 9.10667 45.08 10.44C45.08 11.7867 44.8233 12.9633 44.31 13.97C43.8033 14.9767 43.0967 15.76 42.19 16.32C41.2833 16.88 40.2233 17.16 39.01 17.16C37.77 17.16 36.6867 16.89 35.76 16.35C34.8333 15.8033 34.1133 15.0433 33.6 14.07C33.0867 13.09 32.83 11.95 32.83 10.65ZM42.97 10.44C42.97 8.94 42.6233 7.77333 41.93 6.94C41.2367 6.10667 40.2633 5.69 39.01 5.69C37.71 5.69 36.7033 6.12667 35.99 7C35.2833 7.86667 34.93 9.08333 34.93 10.65C34.93 12.1033 35.2833 13.2367 35.99 14.05C36.7033 14.8567 37.71 15.26 39.01 15.26C40.2633 15.26 41.2367 14.8367 41.93 13.99C42.6233 13.1433 42.97 11.96 42.97 10.44ZM46.5467 11.96C46.5467 10.9067 46.7501 9.99 47.1567 9.21C47.5634 8.42333 48.1301 7.81333 48.8567 7.38C49.5901 6.94667 50.4401 6.73 51.4067 6.73C52.3734 6.73 53.2201 6.94667 53.9467 7.38C54.6734 7.81333 55.2367 8.42333 55.6367 9.21C56.0434 9.99 56.2467 10.9067 56.2467 11.96C56.2467 13.0133 56.0434 13.9367 55.6367 14.73C55.2367 15.5233 54.6734 16.14 53.9467 16.58C53.2201 17.0133 52.3734 17.23 51.4067 17.23C50.4401 17.23 49.5901 17.0133 48.8567 16.58C48.1301 16.14 47.5634 15.5233 47.1567 14.73C46.7501 13.9367 46.5467 13.0133 46.5467 11.96ZM54.1367 11.96C54.1367 10.88 53.8967 10.0433 53.4167 9.45C52.9434 8.85 52.2734 8.55 51.4067 8.55C50.5401 8.55 49.8634 8.85 49.3767 9.45C48.8901 10.0433 48.6467 10.88 48.6467 11.96C48.6467 13.0533 48.8901 13.9033 49.3767 14.51C49.8634 15.11 50.5401 15.41 51.4067 15.41C52.2734 15.41 52.9434 15.11 53.4167 14.51C53.8967 13.9033 54.1367 13.0533 54.1367 11.96ZM63.2377 8.93H62.7077C62.1677 8.93 61.691 9.03 61.2777 9.23C60.871 9.42333 60.551 9.69667 60.3177 10.05C60.0843 10.4033 59.9677 10.81 59.9677 11.27L59.3077 11.15C59.3077 10.25 59.481 9.47667 59.8277 8.83C60.1743 8.17667 60.611 7.67667 61.1377 7.33C61.671 6.97667 62.2143 6.8 62.7677 6.8H63.2377V8.93ZM57.8977 7H59.9677V17H57.8977V7ZM63.9834 12.03C63.9834 10.9567 64.1834 10.0233 64.5834 9.23C64.9901 8.43 65.5601 7.81333 66.2934 7.38C67.0334 6.94667 67.8968 6.73 68.8834 6.73C69.8168 6.73 70.6434 6.95 71.3634 7.39C72.0901 7.82333 72.6601 8.43 73.0734 9.21C73.4868 9.99 73.6934 10.9 73.6934 11.94V12.55H65.9134V11.07H71.4834C71.4168 10.2633 71.1401 9.62333 70.6534 9.15C70.1734 8.67 69.5634 8.43 68.8234 8.43C67.9168 8.43 67.2268 8.72667 66.7534 9.32C66.2801 9.91333 66.0434 10.7833 66.0434 11.93C66.0434 13.11 66.2934 14.0067 66.7934 14.62C67.3001 15.2333 68.0334 15.54 68.9934 15.54C69.6868 15.54 70.2434 15.3867 70.6634 15.08C71.0834 14.7733 71.3501 14.3567 71.4634 13.83H73.5634C73.3568 14.9033 72.8701 15.74 72.1034 16.34C71.3368 16.9333 70.3068 17.23 69.0134 17.23C67.9801 17.23 67.0868 17.02 66.3334 16.6C65.5801 16.18 65.0001 15.5833 64.5934 14.81C64.1868 14.03 63.9834 13.1033 63.9834 12.03Z" fill="white"/>
</svg>
