<svg width="20" height="20" viewBox="0 0 20 20" fill="none" xmlns="http://www.w3.org/2000/svg">
<path opacity="0.4" d="M18.2172 4.4933C18.5729 5.41379 18.074 6.044 17.1084 6.66478C16.3293 7.16566 15.3366 7.70829 14.2848 8.636C13.2537 9.54541 12.2473 10.6407 11.3531 11.7189C10.4624 12.7927 9.70542 13.8218 9.1705 14.5839C8.82484 15.0763 8.3425 15.8109 8.3425 15.8109C8.00235 16.3491 7.3908 16.6748 6.73505 16.6667C6.07917 16.6585 5.47674 16.3178 5.1513 15.7711C4.31941 14.3735 3.67747 13.8216 3.38243 13.6233C2.59299 13.0928 1.66667 13.0144 1.66667 11.7781C1.66667 10.7963 2.49575 10.0004 3.51847 10.0004C4.24052 10.0271 4.91166 10.311 5.50631 10.7107C5.88641 10.9661 6.28908 11.3039 6.70791 11.7486C7.19946 11.0782 7.79181 10.3046 8.45584 9.50408C9.42017 8.34158 10.5584 7.0944 11.7791 6.0178C12.979 4.95945 14.3663 3.96879 15.8368 3.445C16.7958 3.10347 17.8614 3.57281 18.2172 4.4933Z" fill="url(#paint0_linear_2024_778)"/>
<path d="M18.2172 4.4933C18.5729 5.41379 18.074 6.044 17.1084 6.66478C16.3293 7.16566 15.3366 7.70829 14.2848 8.636C13.2537 9.54541 12.2473 10.6407 11.3531 11.7189C10.4624 12.7927 9.70542 13.8218 9.1705 14.5839C8.82484 15.0763 8.3425 15.8109 8.3425 15.8109C8.00235 16.3491 7.3908 16.6748 6.73505 16.6667C6.07917 16.6585 5.47674 16.3178 5.15131 15.7711C4.31941 14.3735 3.67747 13.8216 3.38243 13.6233C2.59299 13.0928 1.66667 13.0144 1.66667 11.7781C1.66667 10.7963 2.49575 10.0004 3.51847 10.0004C4.24052 10.0271 4.91166 10.311 5.50631 10.7107C5.88641 10.9661 6.28908 11.3039 6.70791 11.7486C7.19946 11.0782 7.79181 10.3046 8.45584 9.50408C9.42017 8.34158 10.5584 7.0944 11.7791 6.0178C12.979 4.95945 14.3663 3.96879 15.8368 3.445C16.7958 3.10347 17.8614 3.57281 18.2172 4.4933Z" stroke="#F4F7F5" stroke-width="1.25" stroke-linecap="round" stroke-linejoin="round"/>
<defs>
<linearGradient id="paint0_linear_2024_778" x1="9.99934" y1="3.3335" x2="9.99934" y2="16.6668" gradientUnits="userSpaceOnUse">
<stop stop-color="#F4F7F5"/>
<stop offset="1" stop-opacity="0"/>
</linearGradient>
</defs>
</svg>
